<?xml version="1.0" encoding="utf-8"?>
<!-- Generator: Adobe Illustrator 16.0.0, SVG Export Plug-In . SVG Version: 6.00 Build 0)  -->
<!DOCTYPE svg PUBLIC "-//W3C//DTD SVG 1.1//EN" "http://www.w3.org/Graphics/SVG/1.1/DTD/svg11.dtd">
<svg version="1.1" id="Layer_1" xmlns="http://www.w3.org/2000/svg" xmlns:xlink="http://www.w3.org/1999/xlink" x="0px" y="0px"
	 width="461px" height="175px" viewBox="0 0 461 175" enable-background="new 0 0 461 175" xml:space="preserve">
<title>Artboard</title>
<g id="Artboard">
	<g id="logo" transform="translate(28.000000, 29.000000)">
		<path id="Shape" fill="#FFDD00" d="M37.869,35.372c-0.405,6.641-1.666,7.497-4.87,8.042c-0.154,0.015-0.334,0.034-0.536,0.06
			c-1.653,0.212-2.66,0.314-3.001,0.314c-1.402,0.007-2.803-0.074-4.195-0.244c0-1.33-0.035-3.058-0.142-5.188
			c-0.135-2.695-0.135-4.734-0.135-6.223v-4.851h1.668c6.231,0,8.212,0.85,8.789,1.198c1.929,1.191,2.392,3.854,2.41,6.89
			 M60.331,23.12C56.303,13.752,47.647,8.234,34.538,6.707C29.179,6.223,24.808,6,20.769,6H6.193C3.406,6,2.334,6.501,1.561,7.255
			c0,0-0.63,0.637-0.791,1.062C0.654,8.744,0.587,9.182,0.57,9.623c0,1.207-0.056,3.054-0.137,5.609
			c-0.043,1.416-0.09,3.035-0.142,4.857l-0.12,4.035c-0.09,2.974-0.163,5.31-0.163,7.028v21.263c0,1.332,0.036,3.472,0.07,5.613
			c0.037,2.098,0.071,4.197,0.071,5.503v27.23c0,0.516-0.034,1.469-0.064,2.453c-0.039,1.129-0.077,2.295-0.077,2.973
			c0,0.325,0.039,0.933,0.079,1.542c0.028,0.425,0.062,0.866,0.062,1.096c0.016,0.222,0.013,0.444-0.008,0.665
			C0.109,99.852,0,101.025,0,101.455c0,1.418,0.204,2.357,0.487,3.016C1.65,108,7.23,108,14.178,108
			c5.884,0,8.752-0.295,9.657-2.986c0.063-0.152,0.116-0.308,0.159-0.467l0.015-0.49c0.141-4.72,0.141-7.088,0.141-7.186v-5.277
			c0-2.302,0-6.158-0.141-11.345c-0.137-5.097-0.137-8.743-0.137-11.163v-2.268l0.967,0.062c0.973,0,2.872,0.065,4.716,0.132
			c1.989,0.072,4.045,0.146,5.245,0.146c3.563,0,6.234-0.34,8.174-1.041c4.919-1.786,9.048-4.979,12.625-9.756
			C60.511,49.822,63,42.467,63,34.486c0-3.672-0.797-6.968-2.302-10.447L60.331,23.12z"/>
		<path id="Path" display="none" fill="#FFDD00" d="M78.251,26c0.931,0,2.432-0.081,3.238-0.125l0.868-0.02
			c0.217,0,0.674,0.026,1.221,0.05C84.506,25.95,85.625,26,86.331,26c3.878,0,5.911-0.523,7.238-1.86
			C94.705,23.001,95,21.522,95,16.995v-2.284c0-9.899-0.592-11.581-1.854-12.848c-1.449-1.455-3.531-1.577-5.538-1.577h-4.167
			l-0.746-0.098C82.069,0.084,81.438,0.021,80.804,0h-0.141c-0.451,0-1.373,0-2.989,0.144h-2.262C71,0.144,71,5.237,71,12.286
			c0,9.354,1.009,11.147,2.134,12.273c1.187,1.197,2.837,1.439,5.117,1.439"/>
		<path id="Path_1_" display="none" fill="#FFDD00" d="M96.867,89.583v-5.315c0-25.937-0.56-42.868-1.714-51.765l-0.043-0.325
			l-0.105-0.312C94.362,29.964,92.68,29,89.978,29h-0.981c-0.279,0-0.804,0.028-1.395,0.062c-0.592,0.034-1.322,0.079-1.83,0.079
			c0,0-8.631-0.019-9.015,0c-0.299,0.026-0.595,0.084-0.883,0.173C73,30.27,73,33.204,73,38.528c0,3.089,0.139,7.866,0.142,7.971
			v3.507c0.992,22.563,1.341,33.861,1.401,35.88c0.381,16.178,0.684,19.731,0.878,20.995l0.079,0.521l0.238,0.475
			c1.375,2.743,4.96,3.122,8.631,3.122c2.096,0,3.653,0,4.841-0.141h0.906c1.444,0,4.83,0,6.403-2.617l0.48-0.801V91.832
			c0-0.258-0.039-0.818-0.082-1.379c-0.025-0.342-0.056-0.688-0.06-0.855"/>
		<path id="Path_2_" display="none" fill="#FFDD00" d="M192.673,21.085l-1.745-0.212c-0.423-0.081-0.853-0.124-1.284-0.13
			c-0.642,0-1.309,0.068-1.309,0.068c-2.567,0.734-2.841,0.809-8.038,26.726l-2.139,10.664c-0.59,2.899-0.883,4.438-1.035,5.278
			c-1.283-1.832-2.706-3.771-4.248-5.791c-1.358-1.72-3.219-4.08-5.858-7.104l-5.737-6.712c-1.377-1.596-3.262-3.784-5.829-6.512
			c-3.033-3.382-5.18-6.105-6.697-8.027c-4.432-5.936-10.587-13.003-18.822-21.612L129.79,7.58c-7.381-6.84-8.162-7.372-9.679-7.555
			c-0.246-0.033-0.494-0.033-0.74,0c-0.272,0.025-0.541,0.083-0.8,0.17c-2.52,0.894-3.587,3.637-4.571,11.729
			c-0.528,4.352-0.928,8.821-1.226,13.631c-0.361,5.212-1.131,12.693-2.335,23.853c-0.742,6.874-1.446,13.048-2.087,18.354
			c-0.043,0.343-0.103,1.094-0.167,1.915c-0.064,0.822-0.139,1.76-0.199,2.254c-0.178,1.473-0.477,3.938-1.005,7.164
			s-0.845,5.771-1.05,7.448l-0.316,2.626l-0.59,7.166c-0.18,1.758,0.58,3.926,5.112,4.469c0.438,0.054,1.617,0.146,6.844,0.402
			l0.428,0.051c0.409,0.049,1.585,0.309,2.443,0.498c1.337,0.294,2.192,0.479,2.78,0.55c4.265,0.515,5.23-1.905,5.446-3.014
			c0.323-1.437,0.659-4.188,1.204-8.681c0.116-0.969,0.25-2.443,0.366-3.723c0.079-0.902,0.152-1.703,0.199-2.103l0.712-5.858
			c0.477-2.789,0.731-4.896,0.903-6.285c0.727-6,1.497-13.576,2.273-22.61c0.449,0.573,0.952,1.213,1.525,1.939l3.332,4.073
			c1.388,2.077,3.546,4.814,6.549,8.621c3.014,3.662,5.187,6.419,6.5,8.242c2.334,3.125,6.096,7.73,11.234,13.757
			c6.104,6.811,9.357,11.007,11.02,13.342c1.634,2.526,4.006,5.342,7.681,9.108c0.89,1.033,2.139,1.652,3.709,1.842
			c2.442,0.293,4.547-0.852,5.542-2.98c0.689-1.3,1.267-3.563,2.22-8.638l0.021-0.13c0.838-5.723,2.237-13.766,4.162-23.9
			c1.964-10.338,3.549-18.728,4.578-24.899l0.214-1.805c0.096-0.79,0.301-2.081,0.588-3.909c0.214-1.326,0.464-2.922,0.751-4.806
			l0.469-2.969c0.496-3.227,0.889-5.776,1.127-7.747C205.746,22.662,195.907,21.479,192.673,21.085"/>
		<path id="Path_3_" fill="#FFDD00" d="M285.175,18.241c1.194-1.651,1.825-3.422,1.825-5.114c0.008-0.532-0.102-1.06-0.321-1.544
			C285.328,6.972,279.309,5,266.701,5c-5.56,0-11.838,0.188-18.662,0.563c-6.698,0.368-12.715,0.554-17.879,0.554
			c-0.836,0-2.1,0.054-3.85,0.131c-1.063,0.045-2.336,0.098-3.779,0.152c-1.441,0.053-2.695,0.109-3.768,0.154
			c-1.686,0.073-2.907,0.124-3.61,0.124c-1.513,0-4.035,0.802-4.035,6.172c0,0.83,0.058,3.249,0.579,7.815
			c0.392,3.293,0.533,5.561,0.533,6.593c0,2.89,2.246,4.354,6.682,4.354c0.875,0,1.986-0.068,3.526-0.163l2.079-0.122l0.183-0.02
			c3.398-0.376,4.339-0.398,4.494-0.398l16.37-0.56l0.213-0.015c0.935-0.09,1.808-0.169,2.61-0.235
			c-3.659,6.51-8.05,14.054-12.905,22.168c-5.997,10.231-12.273,21.018-17.585,30.644c-1.255,2.399-3.283,6.558-5.819,12.714
			c-1.863,4.457-1.311,7.726,1.646,9.71c0.148,0.097,0.305,0.181,0.467,0.253s0.328,0.135,0.497,0.189
			c5.269,1.477,12.675,2.223,22.012,2.223c2.376,0,5.413-0.079,9.26-0.182l3.661-0.099H268.1h0.212
			c2.124-0.135,6.387-0.135,12.295-0.135c4.396,0,4.46-5.79,4.46-8.7c0.054-0.667,0.083-1.242,0.111-1.736
			c0.031-0.55,0.063-1.172,0.102-1.369l0.065-0.329v-0.334c0-0.265,0.036-1.188,0.068-2.114c0.036-1.033,0.07-2.064,0.07-2.354
			c0-3.122-3.14-3.683-4.83-3.984c-1.461-0.261-3.572-0.547-6.344-0.904c-4.087-0.458-14.383-1.232-27.981-2.113
			c11.192-22.003,21.238-39.673,29.91-52.582c4.491-5.884,7.336-10.195,8.949-12.811"/>
		<path id="Shape_1_" fill="#FFDD00" d="M320.431,41.537c0-0.909,1.549-6.919,1.583-8.55c0.034-1.63,1.62-3.764,1.62-4.601
			c0-0.253,0.023-0.649,0.056-1.106c1.711,0.13,2.863,0.145,3.407,0.147l2.708,0.255l4.902,0.677c2.32,0.364,4.19,0.523,5.693,0.651
			l0.693,0.06c0,0,12.91,47.608,9.388,51.609s-31.95,1.705-31.95,1.705L320.431,41.537z M365.33,103.916
			c1.477-2.594,2.809-17.071,2.354-30.698c-0.392-11.745-1.243-23.497-1.243-25.078v-7.461c0.139-3.513,0.488-5.262,0.357-6.992
			c0-0.181-0.02-0.466-0.038-0.851c-0.054-0.968-0.146-2.715-0.237-5.197c-0.054-1.398-0.084-2.622-0.113-3.662
			c-0.048-1.771-0.077-2.979-0.172-3.831c-0.173-3.702-6.22-13.91-15.127-14.453c-6.656-0.404-14.671-0.838-23.605-0.979
			c-11.144-0.351-17.985,3.556-18.966,4.299c-2.47,1.874-1.423,0.686-3.561,2.685c-1.157,0.451-2.516,1.539-2.875,4.056
			c-0.911,5.18-1.667,5.046-2.145,15.956v0.321c0,0-6.895,65.593-3.593,69.667S321.381,108,321.381,108
			c1.089,0,24.509,0.032,26.599,0C347.979,108,362.58,108.746,365.33,103.916z"/>
		<path id="Path_4_" fill="#FFDD00" d="M395.703,95h-7.171c-2.993,0-4.235,1.498-4.75,2.623c-0.633,1.108-0.782,2.583-0.782,4.675
			v0.146c0.102,2.371,0.422,9.582,0.422,10.489c0,1.521,0.789,4.067,6.087,4.067h10.484c4.007,0,4.007-5.071,4.007-6.738v-9.925
			c0-1.993-1.078-5.337-8.293-5.337"/>
		<path id="Path_5_" fill="#FFDD00" d="M404.048,1.999C402.85,0.527,400.813,0,392.924,0h-7.531C383.276,0,381,1.569,381,5.017
			v5.556c0,6.554,0.328,15.291,1.103,29.24c0.729,12.348,1.088,22.034,1.088,33.107c0,0.739,0,2.974,0.138,6.797
			c0.073,1.947,0.143,3.484,0.194,4.614c0.044,0.976,0.078,1.618,0.078,1.931c0,2.791,1.975,4.738,4.811,4.738
			c0.21,0,0.603-0.023,1.078-0.058c0.51-0.034,1.15-0.081,1.658-0.081h3.832h0.21c1.345-0.084,2.583-0.131,3.486-0.131
			c2.408,0,5.216-1.678,5.216-6.405c0-0.289-0.02-1.028-0.049-1.927c-0.037-1.273-0.088-2.922-0.088-3.908V65.245
			c0.137-6.567,0.137-11.371,0.137-14.242c0-1.742,0.079-4.205,0.176-7.325l0.209-6.473c0.096-3.005,0.174-5.377,0.174-7.181
			c0-1.752,0.075-4.156,0.176-7.2l0.209-6.478C404.927,13.488,405,11.23,405,9.461V6.403c0-2.184,0-3.341-0.933-4.405"/>
	</g>
</g>
<path id="Path_6_" fill="#FFDD00" d="M237.174,49.241c1.195-1.651,1.826-3.422,1.826-5.114c0.008-0.532-0.102-1.06-0.322-1.544
	c-1.35-4.611-7.369-6.583-19.977-6.583c-5.56,0-11.838,0.188-18.662,0.563c-6.698,0.368-12.715,0.554-17.879,0.554
	c-0.836,0-2.1,0.054-3.85,0.131c-1.063,0.045-2.336,0.098-3.779,0.152c-1.441,0.053-2.695,0.109-3.768,0.154
	c-1.686,0.073-2.907,0.124-3.61,0.124c-1.513,0-4.035,0.802-4.035,6.172c0,0.83,0.058,3.249,0.579,7.815
	c0.392,3.293,0.533,5.561,0.533,6.593c0,2.89,2.246,4.354,6.682,4.354c0.875,0,1.986-0.068,3.526-0.163l2.079-0.122l0.183-0.02
	c3.398-0.376,4.339-0.398,4.494-0.398l16.37-0.56l0.213-0.015c0.935-0.09,1.808-0.169,2.61-0.235
	c-3.659,6.51-8.05,14.054-12.905,22.168c-5.997,10.231-12.273,21.018-17.585,30.644c-1.255,2.399-3.283,6.558-5.819,12.714
	c-1.863,4.457-1.311,7.726,1.646,9.71c0.148,0.097,0.305,0.181,0.467,0.253s0.328,0.135,0.497,0.189
	c5.269,1.477,12.675,2.223,22.012,2.223c2.376,0,5.413-0.079,9.26-0.182l3.661-0.099h18.479h0.212
	c2.124-0.135,6.387-0.135,12.294-0.135c4.396,0,4.461-5.79,4.461-8.7c0.053-0.667,0.082-1.242,0.111-1.736
	c0.031-0.55,0.063-1.172,0.102-1.369l0.064-0.329v-0.334c0-0.265,0.037-1.188,0.068-2.114c0.037-1.033,0.07-2.064,0.07-2.354
	c0-3.122-3.139-3.683-4.83-3.984c-1.461-0.261-3.572-0.547-6.343-0.904c-4.087-0.458-14.383-1.232-27.981-2.113
	c11.192-22.003,21.238-39.673,29.91-52.582c4.491-5.884,7.336-10.195,8.95-12.811"/>
<path id="Shape_2_" fill="#FFDD00" d="M158.317,74.973c-1.442-1.158-22.351,1.008-22.351,1.008l-12.139,0.604l-7.341-0.79
	l0.008-6.871c0-0.909,0.037-2.553,0.071-4.184c0.034-1.63,0.068-3.192,0.068-4.028c0-0.253,0.023-0.649,0.056-1.106
	c1.711,0.13,2.863,0.145,3.407,0.147l2.708,0.255l8.73-0.086c2.32,0.364,21.95,2.483,25.498-0.868
	c1.357-1.282,0.902-4.819,0.902-4.819c0-0.181,0.092,1.777,0.073,1.393c-0.054-0.968-0.146-2.715-0.237-5.197
	c-0.054-1.398-0.084-2.622-0.113-3.662c-0.048-1.771-0.077-2.979-0.172-3.831c-0.173-3.702-4.468-4.375-13.375-4.917
	c-6.656-0.404-14.671-0.838-23.605-0.979c-11.144-0.351-13.612-0.411-14.269-0.425l-1.247-0.077
	c-1.81-0.111-3.371-0.213-4.602-0.213c-0.77,0-1.636,0-2.547,0.392c-1.157,0.451-2.516,1.539-2.875,4.056
	c-0.911,5.18-1.529,12.353-2.007,23.263v0.321l-0.979,31.771l-0.561,26.658c0,1.113,0,2.98-0.135,5.533
	c-0.056,1.074-0.09,2.014-0.122,2.828c-0.038,1.104-0.072,1.977-0.137,2.5L91,134.064c0,4.609,6.23,4.609,13.447,4.609
	c0.409,0,1.202-0.041,1.951-0.08c0.532-0.031,1.035-0.059,1.267-0.059c4.729,0,22.502-1.539,22.502-1.539s19.666-0.506,21.431-2.018
	c1.765-1.514,2.269-7.816,2.269-7.816s1.009-8.572-0.252-10.084c-1.261-1.514-26.473-0.252-26.473-0.252l-11.491,0.623
	c-0.066-1.863-0.135-3.783-0.135-4.822v-2.201c0.142-1.551,0.142-3.789,0.142-6.842c0-2.27,0-4.189-0.028-5.828
	c1.089,0,2.826,0.074,4.505,0.137c1.975,0.072,3.851,0.141,5.021,0.141h1.959c3.384,0,6.079,0,8.169-0.031
	c0,0,18.035-0.098,20.153-3.26s2.881-6.217,2.881-6.217C158.191,87.149,159.759,76.13,158.317,74.973z"/>
</svg>
